<svg xmlns="http://www.w3.org/2000/svg" viewBox="0 0 480 640"><rect width="480" height="640" fill="white"/><g stroke-linejoin="round" stroke-linecap="round"><path d="M210 379 L184 505 L161 566 L202 583 L235 518 L242 419 M268 386 L293 503 L324 567 L288 587 L252 527 L230 421" fill="#dca937" stroke="#374b3a" stroke-width="9"/><path d="M202 271 L146 310 L96 258 L68 285 L126 367 Q140 380 159 365 L198 338 M277 269 L332 307 L383 250 L411 281 L355 360 Q342 376 322 361 L279 334" fill="#da654a" stroke="#374b3a" stroke-width="9"/><path d="M204 253 Q238 235 279 254 L291 400 Q244 423 187 398 Z" fill="#da654a" stroke="#374b3a" stroke-width="10"/><path d="M230 239 L229 269 L254 270 L255 239" fill="#efc496" stroke="#374b3a" stroke-width="8"/><path d="M181 154 Q177 110 216 98 Q252 80 288 109 Q320 135 305 184 L288 224 Q271 249 235 249 Q199 246 185 214 Z" fill="#f0ca96" stroke="#374b3a" stroke-width="10"/><path d="M183 153 Q174 110 207 94 L214 111 L239 79 L253 105 L277 91 Q302 101 309 145 L285 124 L264 142 L241 119 L216 144 L205 128 Z" fill="#374b3a" stroke="#374b3a" stroke-width="6"/><ellipse cx="215" cy="175" rx="7" ry="9" fill="#374b3a"/><ellipse cx="271" cy="175" rx="7" ry="9" fill="#374b3a"/><path d="M224 204 Q243 226 262 203" fill="none" stroke="#374b3a" stroke-width="6"/><path d="M201 195 L213 198 M274 197 L288 192" stroke="#d16a4c" stroke-width="7"/><path d="M217 313 L258 309 M215 340 L269 336 M210 371 L273 366" stroke="#efbc85" stroke-width="8"/><path d="M155 563 L138 581 Q133 599 169 601 L209 591 L202 576 M287 577 L292 598 L337 596 Q350 587 328 567" fill="#467960" stroke="#374b3a" stroke-width="8"/></g></svg>
